<svg xmlns="http://www.w3.org/2000/svg" viewBox="0 0 838.71 576.26"><defs><style>.cls-1{fill:#3269b1;}</style></defs><g id="Capa_2" data-name="Capa 2"><g id="Capa_1-2" data-name="Capa 1"><polygon class="cls-1" points="564.21 318.16 421.63 165.78 566.86 10.61 566.86 102.05 523.05 159.18 557.34 179.91 564.21 318.16"/><path class="cls-1" d="M563.75,175.73l-30.53-18.47,40.54-52.87V8.24L567.33,0,560,7.88,421.4,155.94l-9.36,10,4.71,4.73L564.21,318.16Zm-3.79-76-47.08,61.39,38.06,23,13.27,134.05-133-152.54L560,28.06Z"/><polygon class="cls-1" points="302.11 197.28 317.34 225.85 317.34 355.37 300.2 338.22 252.59 289.47 191.63 225.85 340.2 86.8 342.1 179.91 302.11 197.28"/><path class="cls-1" d="M349.09,184.4l-1.65-81-.4-19.6-6.73-6.57-7.06,6.6-141.06,132-10.09,9.44-.28.26,65.82,68.7,47.67,48.81L324.24,372V224.13l-12.53-23.51ZM310.45,338.71l-5.32-5.3-47.56-48.72-56.12-58.57L333.62,102.4l1.48,73-42.58,18.49,17.93,33.66Z"/><polygon class="cls-1" points="134.5 229.65 111.64 250.6 134.5 273.46 40.85 557.07 6.89 557.07 6.89 285.19 134.5 159.18 134.5 229.65"/><path class="cls-1" d="M121.61,250.81l19.79-18.13V156.63l-6.48-7.56-7.32,7.23L0,282.31v294H45l5.38-26.09,92-278.58ZM13.8,288.08,127.6,175.69v50.92l-25.93,23.77,25,24.95L35.87,550.17H13.8Z"/><path class="cls-1" d="M573.76,8.24,567.33,0,560,7.88V99.72l-47.08,61.39,38.06,23,13.27,134.05-133-152.54-4.88-4.89-5-4.79L347,83.82l-6.73-6.57-7.06,6.6.2,9.27.17,9.28,1.48,73-42.58,18.49,17.93,33.66V338.71l-5.32-5.3-47.56-48.72-56.12-58.57-4.71-4.91-.08-.07-4.47-5.25L141.4,156.63l-6.48-7.56-7.32,7.23v70.31l-25.93,23.77,25,24.95L35.87,550.17l-2.27,6.9-2.29,19.19h807.4v-252ZM811.65,550.17H50.39l92-278.58-20.78-20.78,19.79-18.13V177.84l40.7,47.49,4.29,5,61.25,64,47.67,48.81L324.24,372V224.13l-12.53-23.51,37.38-16.22-1.65-81,69.31,67.25L564.21,318.16l-.46-142.43-30.53-18.47,40.54-52.87V39.69L811.65,327.63Z"/><polygon class="cls-1" points="145.88 557.07 138.88 557.07 138.88 386.19 185.2 345.01 251.78 345.01 251.78 352.01 187.87 352.01 145.88 389.33 145.88 557.07"/><polygon class="cls-1" points="257.69 530.84 201.72 530.84 165.99 493.3 165.99 440.12 172.99 440.12 172.99 490.5 204.72 523.84 257.69 523.84 257.69 530.84"/><circle class="cls-1" cx="251.78" cy="348.51" r="11.29"/><circle class="cls-1" cx="352.1" cy="443.17" r="11.29"/><circle class="cls-1" cx="449.62" cy="446.15" r="11.29"/><circle class="cls-1" cx="603.23" cy="332.22" r="11.29"/><circle class="cls-1" cx="679.2" cy="412.11" r="11.29"/><circle class="cls-1" cx="763.9" cy="332.22" r="11.29"/><circle class="cls-1" cx="664.88" cy="355.02" r="11.29"/><circle class="cls-1" cx="763.9" cy="476.61" r="11.29"/><circle class="cls-1" cx="430.66" cy="506.93" r="11.29"/><circle class="cls-1" cx="257.69" cy="527.34" r="11.29"/><circle class="cls-1" cx="169.49" cy="440.12" r="11.29"/><polygon class="cls-1" points="433.14 509.4 428.19 504.45 487.67 444.97 487.67 198.16 494.67 198.16 494.67 447.87 433.14 509.4"/><polygon class="cls-1" points="402.83 498.85 349.63 445.64 354.58 440.69 402.83 488.94 448.69 443.09 453.64 448.04 402.83 498.85"/><polygon class="cls-1" points="609.58 557.07 602.58 557.07 602.58 331.38 681.67 410.47 676.73 415.42 609.58 348.28 609.58 557.07"/><polygon class="cls-1" points="767.39 476.61 760.39 476.61 760.39 347.58 706.45 401.53 662.41 357.49 667.36 352.54 706.45 391.63 767.39 330.68 767.39 476.61"/></g></g></svg>