<svg xmlns="http://www.w3.org/2000/svg" viewBox="0 0 844.09 925.3"><defs><style>.cls-1{fill:#3269b2;}</style></defs><g id="Capa_2" data-name="Capa 2"><g id="Capa_1-2" data-name="Capa 1"><polygon class="cls-1" points="564.21 318.16 421.63 165.78 566.86 10.61 566.86 102.05 523.05 159.18 557.34 179.91 564.21 318.16"/><path class="cls-1" d="M563.75,175.73l-30.53-18.47,40.54-52.87V8.24L567.33,0,560,7.88,421.4,155.94l-9.36,10,4.71,4.73L564.21,318.16Zm-3.79-76-47.08,61.39,38.06,23,13.27,134.05-133-152.54L560,28.06Z"/><polygon class="cls-1" points="302.11 197.28 317.34 225.85 317.34 355.37 300.2 338.22 252.59 289.47 191.63 225.85 340.2 86.8 342.1 179.91 302.11 197.28"/><path class="cls-1" d="M349.09,184.4l-1.65-81-.4-19.6-6.73-6.57-7.06,6.6-141.06,132-10.09,9.44-.28.26,65.82,68.7,47.67,48.81L324.24,372V224.13l-12.53-23.51ZM310.45,338.71l-5.32-5.3-47.56-48.72-56.12-58.57L333.62,102.4l1.48,73-42.58,18.49,17.93,33.66Z"/><polygon class="cls-1" points="134.5 229.65 111.64 250.6 134.5 273.46 40.85 557.07 6.89 557.07 6.89 285.19 134.5 159.18 134.5 229.65"/><path class="cls-1" d="M121.61,250.81l19.79-18.13V156.63l-6.48-7.56-7.32,7.23L0,282.31v294H45l5.38-26.09,92-278.58ZM13.8,288.08,127.6,175.69v50.92l-25.93,23.77,25,24.95L35.87,550.17H13.8Z"/><path class="cls-1" d="M573.76,8.24,567.33,0,560,7.88V99.72l-47.08,61.39,38.06,23,13.27,134.05-133-152.54-4.88-4.89-5-4.79L347,83.82l-6.73-6.57-7.06,6.6.2,9.27.17,9.28,1.48,73-42.58,18.49,17.93,33.66V338.71l-5.32-5.3-47.56-48.72-56.12-58.57-4.71-4.91-.08-.07-4.47-5.25L141.4,156.63l-6.48-7.56-7.32,7.23v70.31l-25.93,23.77,25,24.95L35.87,550.17l-2.27,6.9-2.29,19.19h807.4v-252ZM811.65,550.17H50.39l92-278.58-20.78-20.78,19.79-18.13V177.84l40.7,47.49,4.29,5,61.25,64,47.67,48.81L324.24,372V224.13l-12.53-23.51,37.38-16.22-1.65-81,69.31,67.25L564.21,318.16l-.46-142.43-30.53-18.47,40.54-52.87V39.69L811.65,327.63Z"/><polygon class="cls-1" points="145.88 557.07 138.88 557.07 138.88 386.19 185.2 345.01 251.78 345.01 251.78 352.01 187.87 352.01 145.88 389.33 145.88 557.07"/><polygon class="cls-1" points="257.69 530.84 201.72 530.84 165.99 493.3 165.99 440.12 172.99 440.12 172.99 490.5 204.72 523.84 257.69 523.84 257.69 530.84"/><circle class="cls-1" cx="251.78" cy="348.51" r="11.29"/><circle class="cls-1" cx="352.1" cy="443.17" r="11.29"/><circle class="cls-1" cx="449.62" cy="446.15" r="11.29"/><circle class="cls-1" cx="603.23" cy="332.22" r="11.29"/><circle class="cls-1" cx="679.2" cy="412.11" r="11.29"/><circle class="cls-1" cx="763.9" cy="332.22" r="11.29"/><circle class="cls-1" cx="664.88" cy="355.02" r="11.29"/><circle class="cls-1" cx="763.9" cy="476.61" r="11.29"/><circle class="cls-1" cx="430.66" cy="506.93" r="11.29"/><circle class="cls-1" cx="257.69" cy="527.34" r="11.29"/><circle class="cls-1" cx="169.49" cy="440.12" r="11.29"/><polygon class="cls-1" points="433.14 509.4 428.19 504.45 487.67 444.97 487.67 198.16 494.67 198.16 494.67 447.87 433.14 509.4"/><polygon class="cls-1" points="402.83 498.85 349.63 445.64 354.58 440.69 402.83 488.94 448.69 443.09 453.64 448.04 402.83 498.85"/><polygon class="cls-1" points="609.58 557.07 602.58 557.07 602.58 331.38 681.67 410.47 676.73 415.42 609.58 348.28 609.58 557.07"/><polygon class="cls-1" points="767.39 476.61 760.39 476.61 760.39 347.58 706.45 401.53 662.41 357.49 667.36 352.54 706.45 391.63 767.39 330.68 767.39 476.61"/><path class="cls-1" d="M52.67,741.13q-16.45,0-28.56-5A63,63,0,0,1,2,720.43l20.88-21.07a51.44,51.44,0,0,0,14.6,11,39.62,39.62,0,0,0,17.56,3.78q8.31,0,12.84-2.86a8.87,8.87,0,0,0,4.53-7.86,10,10,0,0,0-3.33-7.66,30.25,30.25,0,0,0-8.77-5.36q-5.46-2.31-12-4.44a115,115,0,0,1-13.12-5.17,57.19,57.19,0,0,1-12-7.49,33.2,33.2,0,0,1-8.78-11.09q-3.33-6.65-3.32-16.44,0-12.57,6-21.44a38.79,38.79,0,0,1,16.73-13.68q10.71-4.8,25-4.8A70.11,70.11,0,0,1,85,610.65,52.84,52.84,0,0,1,104.78,624L83.71,644.84a44.9,44.9,0,0,0-12-8.87,30.08,30.08,0,0,0-13.3-3q-6.84,0-10.72,2.41a7.59,7.59,0,0,0-3.88,6.83,8.93,8.93,0,0,0,3.32,7.21,31.73,31.73,0,0,0,8.78,4.9q5.45,2.13,12,4.34a136.28,136.28,0,0,1,13,5.18,51.64,51.64,0,0,1,11.92,7.57,34.43,34.43,0,0,1,8.78,11.65q3.33,7,3.33,17,0,19.59-13.77,30.31T52.67,741.13Z"/><path class="cls-1" d="M158.74,739.09v-131h33.08v131Z"/><path class="cls-1" d="M252.07,739.09v-131h33.08v131ZM278.31,636v-27.9h69.86V636Zm0,49.9V658.7h64.31v27.17Zm0,53.22v-27.9h71v27.9Z"/><path class="cls-1" d="M404.9,739.09v-131H438v131Zm26.25-53V662.4h24.94q8.13,0,12.48-4t4.34-10.81a14.33,14.33,0,0,0-4.34-10.81q-4.35-4.15-12.48-4.16H431.15V608.07h29.56q13.32,0,23.38,5a39.33,39.33,0,0,1,15.8,13.67,38.83,38.83,0,0,1-.09,40.75,38.86,38.86,0,0,1-16.17,13.68q-10.35,4.89-24.21,4.89Zm44.72,53L437.8,682.91l29.75-7.21,46.57,63.39Z"/><path class="cls-1" d="M561.8,739.09v-131h33.08v131Zm26.25-53V662.4h25q8.12,0,12.47-4t4.34-10.81a14.33,14.33,0,0,0-4.34-10.81q-4.35-4.15-12.47-4.16h-25V608.07h29.57q13.3,0,23.37,5a39.33,39.33,0,0,1,15.8,13.67,38.83,38.83,0,0,1-.09,40.75,38.86,38.86,0,0,1-16.17,13.68q-10.35,4.89-24.21,4.89Zm44.72,53L594.7,682.91l29.75-7.21L671,739.09Z"/><path class="cls-1" d="M705,739.09l50.82-131h32l50.27,131H803.53L765.64,629h12L738.85,739.09Zm30.86-22.91V689.93h72.26v26.25Z"/><path class="cls-1" d="M11.88,922.85V789.24H35.43l10.18,27.32V922.85Zm92.15,0L26,823.72l9.42-34.48,78.21,99.13Zm0,0-8.67-28.08V789.24H129.1V922.85Z"/><path class="cls-1" d="M236.7,925.3A75.16,75.16,0,0,1,208.24,920a70.17,70.17,0,0,1-22.7-14.7,67.77,67.77,0,0,1-15.17-22.15,69,69,0,0,1,14.88-76.6A67.75,67.75,0,0,1,207.87,792a80.75,80.75,0,0,1,56.91,0,67.36,67.36,0,0,1,37.6,36.65,69.82,69.82,0,0,1-15,76.8,67.17,67.17,0,0,1-22.52,14.7A75.07,75.07,0,0,1,236.7,925.3Zm-.38-30.15q11.31,0,19.6-4.9a33.1,33.1,0,0,0,12.82-13.76,45,45,0,0,0,4.52-20.73,47.18,47.18,0,0,0-2.54-15.83,34.55,34.55,0,0,0-7.45-12.34,33.55,33.55,0,0,0-11.68-8,39.24,39.24,0,0,0-15.27-2.83q-11.3,0-19.59,4.81a32.49,32.49,0,0,0-12.82,13.66,44.52,44.52,0,0,0-4.52,20.54,49.17,49.17,0,0,0,2.54,16.3,34.38,34.38,0,0,0,7.45,12.44,32.54,32.54,0,0,0,11.68,7.92A40.56,40.56,0,0,0,236.32,895.15Z"/><path class="cls-1" d="M329,818.26v-29H444.57v29Zm40.9,104.59V790.18h33.73V922.85Z"/><path class="cls-1" d="M478.68,922.85V789.24h33.73V922.85Z"/><path class="cls-1" d="M620,925.3A75.12,75.12,0,0,1,591.56,920a70.1,70.1,0,0,1-22.71-14.7,67.92,67.92,0,0,1-15.17-22.15,71.65,71.65,0,0,1-.09-54.65A67.61,67.61,0,0,1,591.18,792a80.77,80.77,0,0,1,56.92,0,67.44,67.44,0,0,1,37.6,36.65,69.79,69.79,0,0,1-15,76.8,67,67,0,0,1-22.52,14.7A75.05,75.05,0,0,1,620,925.3Zm-.38-30.15q11.31,0,19.6-4.9a33.1,33.1,0,0,0,12.82-13.76,45,45,0,0,0,4.52-20.73A46.93,46.93,0,0,0,654,839.93a34.39,34.39,0,0,0-7.44-12.34,33.64,33.64,0,0,0-11.68-8,39.32,39.32,0,0,0-15.27-2.83q-11.31,0-19.6,4.81a32.41,32.41,0,0,0-12.81,13.66,44.52,44.52,0,0,0-4.53,20.54,48.91,48.91,0,0,0,2.55,16.3,34.22,34.22,0,0,0,7.44,12.44,32.58,32.58,0,0,0,11.69,7.92A40.56,40.56,0,0,0,619.64,895.15Z"/><path class="cls-1" d="M726.87,922.85V789.24h23.56l10.18,27.32V922.85Zm92.16,0-78-99.13,9.42-34.48,78.21,99.13Zm0,0-8.67-28.08V789.24h33.73V922.85Z"/></g></g></svg>